<svg width="76" height="40" viewBox="0 0 76 40" fill="none" xmlns="http://www.w3.org/2000/svg">
<path d="M17.204 15.228H21.53C22.342 15.228 22.9767 15.4567 23.434 15.914C23.9007 16.3713 24.134 16.9827 24.134 17.748C24.134 18.112 24.0827 18.4247 23.98 18.686C23.8773 18.938 23.7467 19.148 23.588 19.316C23.4293 19.4747 23.2473 19.596 23.042 19.68C22.8367 19.7547 22.636 19.8013 22.44 19.82V19.904C22.636 19.9133 22.8507 19.96 23.084 20.044C23.3267 20.128 23.5507 20.2633 23.756 20.45C23.9613 20.6273 24.134 20.8607 24.274 21.15C24.414 21.43 24.484 21.7753 24.484 22.186C24.484 22.578 24.4187 22.9467 24.288 23.292C24.1667 23.6373 23.994 23.936 23.77 24.188C23.546 24.44 23.28 24.6407 22.972 24.79C22.664 24.93 22.328 25 21.964 25H17.204V15.228ZM18.786 23.642H21.502C21.9127 23.642 22.2347 23.5347 22.468 23.32C22.7013 23.1053 22.818 22.7973 22.818 22.396V21.92C22.818 21.5187 22.7013 21.2107 22.468 20.996C22.2347 20.7813 21.9127 20.674 21.502 20.674H18.786V23.642ZM18.786 19.358H21.236C21.628 19.358 21.9313 19.26 22.146 19.064C22.3607 18.8587 22.468 18.5693 22.468 18.196V17.748C22.468 17.3747 22.3607 17.09 22.146 16.894C21.9313 16.6887 21.628 16.586 21.236 16.586H18.786V19.358ZM30.7305 23.796H30.6745C30.6092 23.9733 30.5205 24.146 30.4085 24.314C30.3058 24.482 30.1705 24.6313 30.0025 24.762C29.8438 24.8833 29.6478 24.9813 29.4145 25.056C29.1905 25.1307 28.9292 25.168 28.6305 25.168C27.8745 25.168 27.2865 24.9253 26.8665 24.44C26.4558 23.9547 26.2505 23.2593 26.2505 22.354V17.72H27.7765V22.158C27.7765 23.2873 28.2432 23.852 29.1765 23.852C29.3725 23.852 29.5638 23.8287 29.7505 23.782C29.9372 23.726 30.1005 23.6467 30.2405 23.544C30.3898 23.4413 30.5065 23.3107 30.5905 23.152C30.6838 22.9933 30.7305 22.8067 30.7305 22.592V17.72H32.2565V25H30.7305V23.796ZM36.4576 25C35.9256 25 35.5243 24.8647 35.2536 24.594C34.9829 24.314 34.8476 23.922 34.8476 23.418V18.966H33.7136V17.72H34.3296C34.5816 17.72 34.7543 17.664 34.8476 17.552C34.9503 17.44 35.0016 17.258 35.0016 17.006V15.732H36.3736V17.72H37.8996V18.966H36.3736V23.754H37.7876V25H36.4576ZM41.4752 25C40.9432 25 40.5419 24.8647 40.2712 24.594C40.0005 24.314 39.8652 23.922 39.8652 23.418V18.966H38.7312V17.72H39.3472C39.5992 17.72 39.7719 17.664 39.8652 17.552C39.9679 17.44 40.0192 17.258 40.0192 17.006V15.732H41.3912V17.72H42.9172V18.966H41.3912V23.754H42.8052V25H41.4752ZM47.3738 25.168C46.8698 25.168 46.4078 25.0793 45.9878 24.902C45.5771 24.7247 45.2271 24.4727 44.9378 24.146C44.6484 23.81 44.4244 23.4087 44.2658 22.942C44.1071 22.466 44.0278 21.9387 44.0278 21.36C44.0278 20.7813 44.1071 20.2587 44.2658 19.792C44.4244 19.316 44.6484 18.9147 44.9378 18.588C45.2271 18.252 45.5771 17.9953 45.9878 17.818C46.4078 17.6407 46.8698 17.552 47.3738 17.552C47.8778 17.552 48.3351 17.6407 48.7458 17.818C49.1658 17.9953 49.5204 18.252 49.8098 18.588C50.0991 18.9147 50.3231 19.316 50.4818 19.792C50.6404 20.2587 50.7198 20.7813 50.7198 21.36C50.7198 21.9387 50.6404 22.466 50.4818 22.942C50.3231 23.4087 50.0991 23.81 49.8098 24.146C49.5204 24.4727 49.1658 24.7247 48.7458 24.902C48.3351 25.0793 47.8778 25.168 47.3738 25.168ZM47.3738 23.908C47.8964 23.908 48.3164 23.7493 48.6338 23.432C48.9511 23.1053 49.1098 22.62 49.1098 21.976V20.744C49.1098 20.1 48.9511 19.6193 48.6338 19.302C48.3164 18.9753 47.8964 18.812 47.3738 18.812C46.8511 18.812 46.4311 18.9753 46.1138 19.302C45.7964 19.6193 45.6378 20.1 45.6378 20.744V21.976C45.6378 22.62 45.7964 23.1053 46.1138 23.432C46.4311 23.7493 46.8511 23.908 47.3738 23.908ZM52.4201 25V17.72H53.9461V18.924H54.0161C54.1748 18.532 54.4128 18.2053 54.7301 17.944C55.0568 17.6827 55.5001 17.552 56.0601 17.552C56.8068 17.552 57.3855 17.7993 57.7961 18.294C58.2161 18.7793 58.4261 19.4747 58.4261 20.38V25H56.9001V20.576C56.9001 19.4373 56.4428 18.868 55.5281 18.868C55.3321 18.868 55.1361 18.896 54.9401 18.952C54.7535 18.9987 54.5855 19.0733 54.4361 19.176C54.2868 19.2787 54.1655 19.4093 54.0721 19.568C53.9881 19.7267 53.9461 19.9133 53.9461 20.128V25H52.4201Z" fill="#005AFF"/>
<rect x="0.5" y="0.5" width="75" height="39" rx="3.5" stroke="#005AFF"/>
</svg>
